PathFileType	4	(X/Y/Z)	C:\Users\WrightLab\Desktop\Jo\P1.2Trial10.trc
DataRate	CameraRate	NumFrames	NumMarkers	Units	OrigDataRate	OrigDataStartFrame	OrigNumFrames
100.00	100.00	       11	19	mm	100.00	337	       539
Frame#	Time	Headset_Front			Headset_Back			Headset_Left			Headset_Right			Left_Shoulder			Right_Shoulder			Sternum			C7			Left Elbow			Right Elbow			Left Wrist			Right Wrist			Left ASIS			Right ASIS			S2			Left Knee			Right Knee			Left Ankle			Right Ankle			
		X1	Y1	Z1	X2	Y2	Z2	X3	Y3	Z3	X4	Y4	Z4	X5	Y5	Z5	X6	Y6	Z6	X7	Y7	Z7	X8	Y8	Z8	X9	Y9	Z9	X10	Y10	Z10	X11	Y11	Z11	X12	Y12	Z12	X13	Y13	Z13	X14	Y14	Z14	X15	Y15	Z15	X16	Y16	Z16	X17	Y17	Z17	X18	Y18	Z18	X19	Y19	Z19	

337	3.360	6.63805	1415.03345	1395.22839	15.58270	1523.36890	1110.83423	123.65215	1472.66211	1229.65369	-96.17825	1442.51721	1289.68420	235.23431	1260.97656	1132.53455	-180.85321	1257.80774	1221.38770	52.26937	1201.77429	1300.62830	5.28107	1311.74622	1066.96277	284.20828	984.88757	1042.07532	-257.56271	1010.70996	1250.46594	397.04962	782.51910	1088.58838	-215.95787	855.26257	1475.46423	191.42149	893.23804	1290.54675	-92.45026	874.21619	1305.11133	41.22387	913.32501	1025.72998	202.04663	517.23688	1397.55847	-77.23015	426.20395	1200.99829	313.22397	210.72995	1466.48474	-12.00275	106.12122	1062.04956	
338	3.370	7.36632	1413.35767	1405.31702	17.15242	1521.87012	1121.71460	125.71763	1471.64197	1241.83459	-94.43775	1440.87415	1299.69653	238.55952	1259.22021	1145.38123	-178.78096	1255.87830	1230.66541	53.88628	1200.27502	1312.18604	9.35928	1310.26965	1077.88074	288.13123	983.04944	1052.88513	-254.87891	1008.56049	1260.52222	399.99890	780.55426	1102.49585	-214.69229	854.82245	1487.19312	192.01781	891.41339	1303.82935	-91.33541	873.09003	1315.12244	45.81591	911.03241	1037.68896	199.02852	517.75763	1409.02991	-76.85179	424.71030	1207.26550	305.99698	213.11687	1486.05383	-11.87237	105.89849	1062.94653	
339	3.380	8.33763	1411.97754	1416.04529	22.65489	1519.01648	1132.35193	128.34926	1470.53760	1254.41272	-92.90382	1438.86047	1309.95703	241.71968	1257.89563	1158.01843	-175.66376	1253.28125	1239.62415	55.36370	1199.12280	1323.63757	13.27980	1308.23462	1088.95874	292.37271	981.34973	1067.99170	-251.79967	1006.81226	1270.06262	404.29977	779.21875	1116.96985	-214.85478	854.49915	1496.61731	192.71475	889.35938	1316.70679	-89.99045	871.45264	1325.79321	50.32830	909.26105	1048.97534	197.44260	518.25275	1420.50500	-76.23246	423.42346	1214.35657	301.56781	215.98499	1504.75134	-12.10211	106.34729	1064.08887	
340	3.390	9.13938	1410.60950	1427.48645	24.18908	1517.92432	1143.38623	129.45938	1468.83521	1264.89917	-91.12346	1437.08948	1320.06262	245.50040	1255.92383	1171.56348	-173.48779	1251.61108	1248.79175	57.33343	1197.67969	1335.06946	17.78740	1306.74817	1099.53125	297.01624	980.17444	1081.43445	-249.42256	1005.09180	1279.80054	407.72818	777.42444	1130.58484	-214.60652	853.53345	1508.10754	193.21082	887.71295	1329.73145	-87.88824	871.06030	1336.86902	54.87555	907.35962	1060.51599	196.48599	519.23285	1433.87183	-75.42641	423.58997	1222.76135	296.92899	216.54826	1520.46936	-12.50562	107.58929	1065.21594	
341	3.400	10.37997	1409.41956	1438.22522	27.14944	1516.59741	1154.28833	131.48430	1468.36499	1277.53198	-89.40146	1435.26563	1329.95593	248.52841	1255.23169	1184.99536	-170.79350	1250.49170	1257.90625	59.47680	1196.75488	1346.26636	21.71535	1305.01392	1110.42651	302.37323	979.10199	1095.67200	-246.47784	1003.56512	1289.24951	411.69058	776.08472	1146.08020	-214.92699	851.01501	1517.34827	193.97838	885.84515	1342.52808	-85.23886	869.46356	1346.37976	58.72466	905.50659	1072.09387	196.30350	518.77795	1447.52905	-73.80564	423.18423	1231.21240	292.21402	214.56622	1532.60779	-12.44081	107.77123	1065.50903	
342	3.410	11.18700	1407.87585	1449.48987	29.22806	1516.05286	1165.50635	133.87117	1467.91809	1289.26306	-87.72427	1433.69836	1339.90601	252.45018	1254.21936	1198.19897	-167.66238	1248.48486	1266.81421	61.01625	1195.74060	1357.14465	25.91613	1303.51099	1121.43591	305.65295	976.98175	1109.01831	-243.10431	1001.94458	1298.05493	415.36133	774.97412	1161.65784	-214.81204	848.57361	1526.40540	194.35960	884.46637	1355.46863	-83.83205	868.73383	1358.19373	62.74201	903.29956	1085.84436	196.20905	517.94971	1462.06494	-72.16930	423.38010	1239.66345	288.58136	208.77051	1542.78857	-13.81190	109.89004	1068.65173	
343	3.420	11.57023	1406.97607	1459.65601	32.22780	1514.97314	1176.61414	136.09370	1467.44067	1301.49170	-86.16702	1431.99512	1349.95911	255.97017	1252.56628	1210.58057	-164.73770	1247.70093	1275.91064	63.52588	1195.43274	1369.86279	30.14298	1302.40735	1132.44873	310.09726	976.29584	1123.55969	-240.57259	1000.87793	1307.00452	418.23682	772.83893	1176.85217	-215.58098	845.81189	1535.85608	195.31317	884.09888	1369.21338	-81.05148	868.61517	1369.33228	66.79533	901.61212	1098.39954	197.17622	516.22388	1476.09631	-70.86383	423.97943	1249.25220	284.31180	202.67130	1552.19434	-14.95856	112.20144	1071.09521	
344	3.430	12.10655	1406.03064	1471.23743	35.26254	1514.28577	1187.63477	137.57983	1466.87952	1312.91101	-84.55987	1430.50684	1359.79968	259.76932	1252.30774	1223.96912	-161.44188	1246.24744	1285.06091	65.54867	1195.17249	1382.03723	34.29056	1301.52747	1143.67676	314.74808	974.89844	1138.37671	-236.09386	998.78375	1315.68286	422.09903	771.42969	1193.18762	-217.64603	842.12384	1542.06226	196.49063	882.81848	1381.73669	-78.31574	867.11157	1379.87317	70.68285	900.04730	1111.14160	197.18214	514.13568	1490.29724	-68.08084	424.19342	1257.97583	282.78006	194.85548	1558.13452	-15.17811	114.16145	1072.64648	
345	3.440	12.83227	1404.88965	1481.36682	39.07478	1513.27124	1198.64978	139.54022	1466.68726	1325.81262	-83.13583	1429.33240	1369.59094	262.78619	1251.26111	1237.33606	-158.51497	1245.50464	1294.39612	67.41010	1194.96509	1393.58704	38.67259	1300.30383	1154.72693	318.64954	973.37708	1154.00842	-233.13387	997.70947	1323.84631	425.43979	770.12341	1209.94763	-218.29178	837.94202	1548.74939	197.59630	882.80682	1395.20032	-76.43198	867.61536	1393.21301	74.99288	898.85724	1124.21826	197.94847	511.11374	1504.43042	-65.66612	424.69397	1268.44385	281.29547	189.55550	1565.17285	-16.37024	118.11525	1076.72070	
346	3.450	13.07816	1404.45996	1492.52429	40.51267	1513.35071	1209.92834	141.94826	1466.42578	1337.88684	-81.60337	1428.44507	1379.25562	266.66620	1251.08167	1251.64893	-155.56462	1245.13684	1303.42725	69.94884	1194.95325	1405.85547	43.20562	1299.30701	1166.17432	322.50894	973.29486	1167.88904	-229.21146	996.90302	1331.25940	428.47638	768.63959	1226.80457	-219.42760	834.17114	1555.43079	199.31233	882.61395	1408.96265	-75.31183	866.25446	1404.64587	78.82056	897.81061	1137.28992	198.57207	507.28079	1518.72668	-61.56068	424.29010	1278.64050	281.32022	186.50656	1573.10107	-16.53195	120.41560	1078.99561	
347	3.460	13.07374	1404.20032	1503.12842	44.27092	1513.24426	1221.04370	143.17044	1466.75391	1350.44861	-80.44173	1427.58142	1386.97644	270.45007	1250.59302	1264.92627	-152.71457	1245.02246	1312.77759	71.71162	1194.45825	1417.01538	47.88300	1298.84851	1177.53320	326.78137	972.25989	1184.40308	-225.93431	995.99274	1338.73926	430.78656	767.66455	1244.07568	-221.13020	829.45062	1561.80798	200.88972	882.30396	1423.52869	-73.29929	865.21185	1414.68701	83.56716	896.87708	1152.26428	198.35629	502.72995	1531.00330	-59.61987	424.73129	1289.68591	281.43204	185.30692	1583.25903	-18.62901	125.12306	1084.44434	
